<?xml version="1.0" standalone="no"?>
<!DOCTYPE svg PUBLIC "-//W3C//DTD SVG 20010904//EN"
 "http://www.w3.org/TR/2001/REC-SVG-20010904/DTD/svg10.dtd">
<svg version="1.0" xmlns="http://www.w3.org/2000/svg"
 width="900.000000pt" height="504.000000pt" viewBox="0 0 900.000000 504.000000"
 preserveAspectRatio="xMidYMid meet">

<g transform="translate(0.000000,504.000000) scale(0.100000,-0.100000)"
fill="#000000" stroke="none">
<path d="M0 3270 c0 -1763 0 -1770 20 -1770 18 0 20 7 20 60 l0 60 160 0 160
0 0 -120 0 -120 60 0 60 0 0 -40 0 -40 100 0 100 0 0 -300 c0 -293 0 -300 20
-300 13 0 20 7 20 20 0 17 7 20 40 20 33 0 40 3 40 20 0 17 7 20 40 20 l40 0
0 240 0 240 80 0 80 0 0 80 0 80 180 0 180 0 0 -180 0 -180 40 0 40 0 0 220
c0 213 1 220 20 220 18 0 20 7 20 60 l0 60 160 0 160 0 0 -120 0 -120 60 0 60
0 0 -40 0 -40 100 0 100 0 0 -180 c0 -173 1 -180 20 -180 13 0 20 7 20 20 0
18 7 20 80 20 l80 0 0 140 0 140 80 0 80 0 0 80 0 80 180 0 180 0 0 -180 0
-180 60 0 60 0 0 220 c0 213 1 220 20 220 18 0 20 7 20 60 l0 60 160 0 160 0
0 -120 0 -120 60 0 60 0 0 -40 0 -40 100 0 100 0 0 -300 c0 -293 0 -300 20
-300 13 0 20 7 20 20 0 17 7 20 40 20 33 0 40 3 40 20 0 17 7 20 40 20 l40 0
0 240 0 240 80 0 80 0 0 80 0 80 180 0 180 0 0 -180 0 -180 40 0 40 0 0 220
c0 213 1 220 20 220 18 0 20 7 20 60 l0 60 160 0 160 0 0 -120 0 -120 60 0 60
0 0 -40 0 -40 100 0 100 0 0 -180 c0 -173 1 -180 20 -180 13 0 20 7 20 20 0
18 7 20 80 20 l80 0 0 140 0 140 80 0 80 0 0 80 0 80 180 0 180 0 0 -180 0
-180 60 0 60 0 0 220 c0 213 1 220 20 220 18 0 20 7 20 60 l0 60 160 0 160 0
0 -120 0 -120 60 0 60 0 0 -40 0 -40 100 0 100 0 0 -300 c0 -293 0 -300 20
-300 13 0 20 7 20 20 0 17 7 20 40 20 33 0 40 3 40 20 0 17 7 20 40 20 l40 0
0 240 0 240 80 0 80 0 0 80 0 80 180 0 180 0 0 -180 0 -180 40 0 40 0 0 220
c0 213 1 220 20 220 18 0 20 7 20 60 l0 60 160 0 160 0 0 -120 0 -120 60 0 60
0 0 -40 0 -40 100 0 100 0 0 -180 c0 -173 1 -180 20 -180 13 0 20 7 20 20 0
18 7 20 80 20 l80 0 0 140 0 140 80 0 80 0 0 80 0 80 180 0 180 0 0 -180 0
-180 60 0 60 0 0 1990 0 1990 -4500 0 -4500 0 0 -1770z"/>
</g>
</svg>
